<?xml version="1.0" encoding="UTF-8"?>
<svg version="1.1" xmlns="http://www.w3.org/2000/svg" width="48" height="48">
<path d="M0 0 C3.26626351 2.3450097 4.1724449 4.17557062 5 8 C-2.41454864 14.04732691 -2.41454864 14.04732691 -6.35546875 13.9296875 C-7.47888672 13.68605469 -7.47888672 13.68605469 -8.625 13.4375 C-11.46848802 12.88181836 -12.56609747 12.76811368 -15.15625 14.15234375 C-17.26161631 15.99453927 -18.67954077 17.52917459 -20 20 C-19.99576104 22.33990845 -19.56545498 24.36137428 -19.0703125 26.64453125 C-18.93375601 31.21917366 -22.22438536 34.59685509 -25 38 C-30.75 36.375 -30.75 36.375 -33 33 C-33.88036988 26.61731839 -32.54940018 23.36509535 -28.76171875 18.2265625 C-28.18035156 17.49179687 -27.59898438 16.75703125 -27 16 C-26.47019531 15.30648438 -25.94039062 14.61296875 -25.39453125 13.8984375 C-19.11001547 6.1659454 -10.50208576 -1.51812329 0 0 Z " fill="#FFFFFF" transform="translate(39,6)"/>
</svg>
