<?xml version="1.0" encoding="UTF-8"?>
<svg version="1.1" xmlns="http://www.w3.org/2000/svg" width="48" height="48">
<path d="M0 0 C0 1.65 0 3.3 0 5 C8.58 5 17.16 5 26 5 C26.020625 9.104375 26.04125 13.20875 26.0625 17.4375 C26.071604 18.73357178 26.08070801 20.02964355 26.09008789 21.36499023 C26.09258545 22.37762939 26.09508301 23.39026855 26.09765625 24.43359375 C26.10289307 25.47572021 26.10812988 26.51784668 26.11352539 27.59155273 C26 30 26 30 25 31 C23.22130274 31.15764405 21.43681524 31.25100677 19.65234375 31.31640625 C18.68031006 31.35451416 17.70827637 31.39262207 16.70678711 31.43188477 C14.84098999 31.49653931 14.84098999 31.49653931 12.9375 31.5625 C7.0284375 31.7790625 7.0284375 31.7790625 1 32 C14.365 32.495 14.365 32.495 28 33 C28 25.74 28 18.48 28 11 C29.32 11 30.64 11 32 11 C32 19.58 32 28.16 32 37 C27.37253794 37.09193633 22.74825392 37.17153193 18.12060547 37.21972656 C16.54725396 37.2398188 14.97397692 37.26709799 13.40087891 37.30175781 C11.13685728 37.35038494 8.87382427 37.37299135 6.609375 37.390625 C5.90818542 37.41127014 5.20699585 37.43191528 4.48455811 37.45318604 C1.07983025 37.45474369 -0.70853114 37.21627334 -3.47558594 35.16308594 C-5 33 -5 33 -5 30 C-5.639375 29.71125 -6.27875 29.4225 -6.9375 29.125 C-9 28 -9 28 -10 26 C-10.29338566 22.38144197 -10.27791549 18.75406781 -10.3125 15.125 C-10.34150391 14.11824219 -10.37050781 13.11148437 -10.40039062 12.07421875 C-10.46417723 4.68478619 -10.46417723 4.68478619 -8.18359375 1.3203125 C-5.32928239 -0.40555018 -3.2744777 -0.29767979 0 0 Z M0 9 C0 11.97 0 14.94 0 18 C-1.65 18.33 -3.3 18.66 -5 19 C-5.76956136 21.34533951 -5.76956136 21.34533951 -6 24 C-4.93284507 25.77484465 -4.93284507 25.77484465 -3 27 C-0.2905528 27.41410433 -0.2905528 27.41410433 2.76171875 27.29296875 C3.87998047 27.28330078 4.99824219 27.27363281 6.15039062 27.26367188 C7.31763672 27.23853516 8.48488281 27.21339844 9.6875 27.1875 C11.45577148 27.16719727 11.45577148 27.16719727 13.25976562 27.14648438 C16.17337133 27.11109645 19.08674264 27.05728911 22 27 C22 21.06 22 15.12 22 9 C14.74 9 7.48 9 0 9 Z " fill="#FFFFFF" transform="translate(13,3)"/>
<path d="M0 0 C2.64 0 5.28 0 8 0 C8 2.64 8 5.28 8 8 C7.01 7.67 6.02 7.34 5 7 C4.608125 7.515625 4.21625 8.03125 3.8125 8.5625 C2 10 2 10 -0.5 9.75 C-2.34276141 9.19717158 -4.17482878 8.60839041 -6 8 C-7.32 8 -8.64 8 -10 8 C-9.59316505 5.64035727 -9.10185661 4.14065912 -7.6875 2.1875 C-6 1 -6 1 -4 1.3125 C-3.34 1.539375 -2.68 1.76625 -2 2 C-1.01 2 -0.02 2 1 2 C0.67 1.34 0.34 0.68 0 0 Z " fill="#FFFFFF" transform="translate(24,16)"/>
</svg>
