<?xml version="1.0" encoding="UTF-8"?>
<svg version="1.1" xmlns="http://www.w3.org/2000/svg" width="48" height="48">
<path d="M0 0 C5.57906809 4.58723376 7.61711707 8.94113184 9.8828125 15.69140625 C10.73950132 18.28146254 10.73950132 18.28146254 11.91015625 20.48828125 C13.11325987 22.9205297 13.16443397 24.63780183 12.8125 27.3125 C11.8225 27.9725 10.8325 28.6325 9.8125 29.3125 C9.12672735 31.40097349 9.12672735 31.40097349 8.8125 33.75 C8.25857956 37.25239278 7.69982294 39.1351745 4.8125 41.3125 C1.125 42 1.125 42 -2.1875 42.3125 C-2.1875 43.6325 -2.1875 44.9525 -2.1875 46.3125 C-3.1775 46.3125 -4.1675 46.3125 -5.1875 46.3125 C-5.1875 43.6725 -5.1875 41.0325 -5.1875 38.3125 C-3.82625 38.4053125 -3.82625 38.4053125 -2.4375 38.5 C0.73371291 38.50366572 0.73371291 38.50366572 3.125 37.3125 C5.04464007 35.03737103 5.10259581 34.13643675 5.375 31.25 C5.519375 29.950625 5.66375 28.65125 5.8125 27.3125 C6.8025 26.6525 7.7925 25.9925 8.8125 25.3125 C7.47912695 21.2145186 6.04335806 17.18680257 4.4375 13.1875 C4.03789063 12.17429687 3.63828125 11.16109375 3.2265625 10.1171875 C0.95164201 5.60505239 -1.11220852 3.69523087 -5.875 2 C-11.90385656 0.75381177 -17.090037 1.22492659 -22.5625 4.0625 C-27.21258772 8.04828948 -28.80660486 11.8323329 -29.328125 17.83984375 C-29.0691112 22.39416976 -27.09776023 26.23547816 -25.1875 30.3125 C-23.4291542 34.10298247 -22.96186759 36.94875498 -23.0625 41.125 C-23.08054687 42.10082031 -23.09859375 43.07664063 -23.1171875 44.08203125 C-23.15199219 45.18611328 -23.15199219 45.18611328 -23.1875 46.3125 C-24.1775 46.3125 -25.1675 46.3125 -26.1875 46.3125 C-26.20167969 45.63445313 -26.21585938 44.95640625 -26.23046875 44.2578125 C-26.56405971 37.74828074 -27.93702151 33.34182135 -31.03515625 27.6484375 C-33.82583154 21.99140758 -33.48105358 16.41293875 -31.90234375 10.41796875 C-30.31787062 5.75113259 -28.04670129 2.53463291 -23.875 -0.0625 C-17.01090757 -3.13327819 -6.74207556 -3.5753431 0 0 Z " fill="#FFFFFF" transform="translate(34.1875,1.6875)"/>
<path d="M0 0 C3.46056456 1.93522834 5.45476286 3.42678858 6.75 7.3125 C7.03641707 11.24357429 6.96469796 14.81531415 4.40625 17.96875 C-0.08678118 21.75699198 -3.32756191 22.49083681 -8.9609375 22.93359375 C-11.39481196 23.33647058 -13.07307236 24.1879046 -15.25 25.3125 C-18 25.4375 -18 25.4375 -20.25 25.3125 C-20.023125 24.260625 -19.79625 23.20875 -19.5625 22.125 C-19.20473273 17.76023935 -19.97452902 16.86223473 -22.25 13.3125 C-22.82402963 9.45830106 -22.41111225 7.64116899 -20.6875 4.125 C-15.12671744 -2.29128757 -7.58338814 -3.41044512 0 0 Z M-18.1875 6.125 C-19.6954272 9.229556 -19.22085251 11.05320943 -18.25 14.3125 C-16.87485459 16.0212646 -16.87485459 16.0212646 -15.25 17.3125 C-14.59 18.3025 -13.93 19.2925 -13.25 20.3125 C-5.21402971 19.98644024 -5.21402971 19.98644024 1.75 16.3125 C4.07877362 13.43655164 4.07877362 13.43655164 3.6875 9.875 C3.01914817 6.2690659 3.01914817 6.2690659 0.6875 3.9375 C-6.28525971 0.08022867 -12.21345967 0.53638162 -18.1875 6.125 Z " fill="#FFFFFF" transform="translate(30.25,7.6875)"/>
<path d="M0 0 C0.99 0 1.98 0 3 0 C2.67 1.32 2.34 2.64 2 4 C1.01 3.67 0.02 3.34 -1 3 C-0.67 2.01 -0.34 1.02 0 0 Z " fill="#FFFFFF" transform="translate(26,16)"/>
<path d="M0 0 C1.32 0.33 2.64 0.66 4 1 C3.67 1.99 3.34 2.98 3 4 C2.01 3.67 1.02 3.34 0 3 C0 2.01 0 1.02 0 0 Z " fill="#FFFFFF" transform="translate(16,16)"/>
<path d="M0 0 C0.99 0 1.98 0 3 0 C3 1.32 3 2.64 3 4 C2.01 4 1.02 4 0 4 C0 2.68 0 1.36 0 0 Z " fill="#FFFFFF" transform="translate(21,16)"/>
</svg>
