<?xml version="1.0" encoding="UTF-8"?>
<svg version="1.1" xmlns="http://www.w3.org/2000/svg" width="48" height="48">
<path d="M0 0 C3.12578143 1.6720747 5.39281175 3.7856235 7 7 C7.51512617 11.09157355 7.94367269 15.23589546 5.953125 18.95703125 C4.18601378 21.09315687 2.49101659 22.75449171 0 24 C-2.88370333 24.07194869 -5.74239664 24.09291708 -8.625 24.0625 C-9.42679688 24.05798828 -10.22859375 24.05347656 -11.0546875 24.04882812 C-13.03649006 24.03703168 -15.01825433 24.01909605 -17 24 C-18.64103331 18.01514991 -18.79027013 10.45490726 -15.88671875 4.8515625 C-11.40887384 -0.56412014 -6.67723936 -0.94074429 0 0 Z M-10.375 6.375 C-12.86963042 10.4047876 -12.31735888 14.38066514 -12 19 C-10.35 19 -8.7 19 -7 19 C-7 17.35 -7 15.7 -7 14 C-5.68 14 -4.36 14 -3 14 C-3 15.65 -3 17.3 -3 19 C0.12197478 17.6910428 0.12197478 17.6910428 2 15 C2.38932198 11.4182378 2.43596718 9.63718279 0.375 6.625 C-3.46252366 3.99932592 -6.37503984 4.05923359 -10.375 6.375 Z " fill="#FFFFFF" transform="translate(39,10)"/>
<path d="M0 0 C1.051875 -0.00773437 2.10375 -0.01546875 3.1875 -0.0234375 C6 0.375 6 0.375 7.875 1.5859375 C9 3.375 9 3.375 9 8.375 C3.06 8.375 -2.88 8.375 -9 8.375 C-9 3.375 -9 3.375 -7.875 1.5859375 C-5.20787072 -0.13658349 -3.1508755 -0.0231682 0 0 Z " fill="#FFFFFF" transform="translate(11,31.625)"/>
<path d="M0 0 C3 0.25 3 0.25 5 2.25 C5.25 5.25 5.25 5.25 5 8.25 C3 10.25 3 10.25 0 10.5 C-3 10.25 -3 10.25 -5 8.25 C-5.25 5.25 -5.25 5.25 -5 2.25 C-3 0.25 -3 0.25 0 0 Z " fill="#FFFFFF" transform="translate(11,19.75)"/>
<path d="M0 0 C1.32 0 2.64 0 4 0 C4 1.32 4 2.64 4 4 C2.68 4 1.36 4 0 4 C0 2.68 0 1.36 0 0 Z " fill="#FFFFFF" transform="translate(32,18)"/>
</svg>
