<?xml version="1.0" encoding="UTF-8"?>
<svg version="1.1" xmlns="http://www.w3.org/2000/svg" width="48" height="48">
<path d="M0 0 C0.73541016 0.00202423 1.47082031 0.00404846 2.22851562 0.00613403 C2.97939453 0.00517731 3.73027344 0.00422058 4.50390625 0.00323486 C6.09440189 0.00255315 7.6849003 0.00440682 9.27539062 0.00857544 C11.71816217 0.01392386 14.16074984 0.00863019 16.60351562 0.00222778 C18.1451827 0.00288857 19.68684966 0.00416973 21.22851562 0.00613403 C21.96392578 0.0041098 22.69933594 0.00208557 23.45703125 0 C28.61356402 0.02399493 28.61356402 0.02399493 29.72851562 1.13894653 C29.81565394 2.84667011 29.8355157 4.55793302 29.82617188 6.26785278 C29.82294922 7.30232544 29.81972656 8.3367981 29.81640625 9.40261841 C29.80383789 11.03553833 29.80383789 11.03553833 29.79101562 12.70144653 C29.78650391 13.793927 29.78199219 14.88640747 29.77734375 16.01199341 C29.76551389 18.72103148 29.74903106 21.42996253 29.72851562 24.13894653 C28.40851562 23.80894653 27.08851562 23.47894653 25.72851562 23.13894653 C25.72851562 19.50894653 25.72851562 15.87894653 25.72851562 12.13894653 C16.48851562 12.13894653 7.24851562 12.13894653 -2.27148438 12.13894653 C-2.27148438 18.73894653 -2.27148438 25.33894653 -2.27148438 32.13894653 C-0.29148437 32.13894653 1.68851563 32.13894653 3.72851562 32.13894653 C3.72851562 33.45894653 3.72851562 34.77894653 3.72851562 36.13894653 C2.24944671 36.1658387 0.7702408 36.18529275 -0.70898438 36.20144653 C-1.53269531 36.2130481 -2.35640625 36.22464966 -3.20507812 36.23660278 C-5.27148438 36.13894653 -5.27148438 36.13894653 -6.27148438 35.13894653 C-6.37235649 32.629705 -6.4112047 30.14858269 -6.40429688 27.63894653 C-6.4052536 26.88806763 -6.40621033 26.13718872 -6.40719604 25.36355591 C-6.40787776 23.77306027 -6.40602409 22.18256186 -6.40185547 20.59207153 C-6.39650704 18.14929999 -6.40180071 15.70671232 -6.40820312 13.26394653 C-6.40754234 11.72227946 -6.40626118 10.1806125 -6.40429688 8.63894653 C-6.40632111 7.90353638 -6.40834534 7.16812622 -6.41043091 6.41043091 C-6.38192715 0.28494684 -6.12548407 0.02850375 0 0 Z M-2.27148438 4.13894653 C-2.27148438 5.45894653 -2.27148438 6.77894653 -2.27148438 8.13894653 C6.96851563 8.13894653 16.20851563 8.13894653 25.72851562 8.13894653 C25.72851562 6.81894653 25.72851562 5.49894653 25.72851562 4.13894653 C16.48851562 4.13894653 7.24851562 4.13894653 -2.27148438 4.13894653 Z " fill="#FFFFFF" transform="translate(12.271484375,5.861053466796875)"/>
<path d="M0 0 C3.31804319 1.33100211 5.48261708 3.48261708 8 6 C7.9375 8.375 7.9375 8.375 7 11 C1.65882986 15.9303109 -1.90787139 16.33553434 -9.0078125 16.29296875 C-14.09854817 15.79452857 -16.44065198 13.55934802 -20 10 C-19.9375 7.625 -19.9375 7.625 -19 5 C-13.01177778 -0.52758975 -7.9553832 -0.77892133 0 0 Z M-8 5 C-8.33 6.65 -8.66 8.3 -9 10 C-6.525 10.495 -6.525 10.495 -4 11 C-3.67 9.35 -3.34 7.7 -3 6 C-4.65 5.67 -6.3 5.34 -8 5 Z " fill="#FFFFFF" transform="translate(40,32)"/>
<path d="M0 0 C3.96 0 7.92 0 12 0 C12 1.32 12 2.64 12 4 C8.04 4 4.08 4 0 4 C0 2.68 0 1.36 0 0 Z " fill="#FFFFFF" transform="translate(22,22)"/>
<path d="M0 0 C1.32 0 2.64 0 4 0 C4 1.32 4 2.64 4 4 C2.68 4 1.36 4 0 4 C0 2.68 0 1.36 0 0 Z " fill="#FFFFFF" transform="translate(14,30)"/>
<path d="M0 0 C1.32 0 2.64 0 4 0 C4 1.32 4 2.64 4 4 C2.68 4 1.36 4 0 4 C0 2.68 0 1.36 0 0 Z " fill="#FFFFFF" transform="translate(14,22)"/>
</svg>
